<?xml version="1.0" encoding="UTF-8"?>
<svg xmlns="http://www.w3.org/2000/svg" xmlns:xlink="http://www.w3.org/1999/xlink" width="40px" height="40px" viewBox="0 0 40 40" version="1.1">
<g id="surface1">
<path style=" stroke:none;fill-rule:nonzero;fill:rgb(30.588235%,47.058824%,58.823529%);fill-opacity:1;" d="M 14.527344 30.925781 C 14.527344 30.925781 12.988281 31.859375 15.597656 32.128906 C 18.734375 32.527344 20.40625 32.460938 23.878906 31.792969 C 24.574219 32.222656 25.3125 32.578125 26.082031 32.863281 C 18.269531 36.203125 8.382812 32.664062 14.527344 30.925781 Z M 13.527344 26.582031 C 13.527344 26.582031 11.859375 27.851562 14.460938 28.121094 C 17.867188 28.453125 20.539062 28.519531 25.148438 27.585938 C 25.597656 28.042969 26.148438 28.386719 26.753906 28.589844 C 17.335938 31.394531 6.78125 28.855469 13.527344 26.585938 Z M 31.960938 34.195312 C 31.960938 34.195312 33.097656 35.132812 30.691406 35.867188 C 26.21875 37.203125 11.925781 37.605469 7.917969 35.867188 C 6.515625 35.265625 9.1875 34.398438 10.042969 34.265625 C 10.910156 34.0625 11.378906 34.0625 11.378906 34.0625 C 9.84375 32.996094 1.160156 36.265625 6.972656 37.203125 C 22.933594 39.804688 36.09375 36.066406 31.953125 34.195312 Z M 15.25 22.042969 C 15.25 22.042969 7.96875 23.777344 12.644531 24.378906 C 14.648438 24.644531 18.589844 24.578125 22.261719 24.3125 C 25.265625 24.046875 28.273438 23.511719 28.273438 23.511719 C 28.273438 23.511719 27.207031 23.980469 26.472656 24.449219 C 19.058594 26.386719 4.832031 25.515625 8.90625 23.511719 C 12.378906 21.84375 15.25 22.042969 15.25 22.042969 Z M 28.273438 29.320312 C 35.753906 25.445312 32.28125 21.707031 29.878906 22.175781 C 29.277344 22.308594 29.007812 22.441406 29.007812 22.441406 C 29.007812 22.441406 29.207031 22.042969 29.675781 21.910156 C 34.417969 20.238281 38.160156 26.917969 28.140625 29.519531 C 28.140625 29.519531 28.203125 29.453125 28.273438 29.320312 Z M 15.988281 39.875 C 23.199219 40.339844 34.222656 39.605469 34.488281 36.199219 C 34.488281 36.199219 33.953125 37.535156 28.542969 38.535156 C 22.398438 39.671875 14.785156 39.535156 10.308594 38.804688 C 10.308594 38.804688 11.246094 39.605469 15.988281 39.871094 Z M 15.988281 39.875 "/>
<path style=" stroke:none;fill-rule:nonzero;fill:rgb(96.078431%,50.980392%,9.803922%);fill-opacity:1;" d="M 23.746094 0 C 23.746094 0 27.886719 4.207031 19.804688 10.554688 C 13.328125 15.695312 18.335938 18.636719 19.804688 21.976562 C 15.996094 18.570312 13.261719 15.5625 15.128906 12.757812 C 17.867188 8.617188 25.414062 6.625 23.746094 0 Z M 21.621094 19.171875 C 23.558594 21.375 21.085938 23.378906 21.085938 23.378906 C 21.085938 23.378906 26.027344 20.839844 23.757812 17.699219 C 21.6875 14.695312 20.082031 13.226562 28.765625 8.214844 C 28.765625 8.214844 15.074219 11.621094 21.621094 19.171875 Z M 21.621094 19.171875 "/>
</g>
</svg>
